<svg width="20" height="20" viewBox="0 0 20 20" fill="none" xmlns="http://www.w3.org/2000/svg">
<path d="M9.88337 1.66663L9.45004 3.27496C13.125 3.98329 16 6.85829 16.7084 10.5416L18.3334 10.1083C17.4584 5.85829 14.1334 2.53329 9.88337 1.66663ZM9.0167 4.88329L8.58337 6.50829C11.1167 6.89163 13.1 8.87496 13.4834 11.4L15.1 10.9666C14.55 7.86663 12.125 5.41663 9.0167 4.88329ZM3.10003 8.07496C2.5655 9.24327 2.38175 10.5417 2.5711 11.8124C2.76046 13.0832 3.31477 14.2716 4.1667 15.2333V18.3333H6.6667V17.0083C7.45837 17.3333 8.30837 17.5 9.1667 17.5C10.1167 17.5 11.0584 17.2916 11.9167 16.9L3.10003 8.07496ZM8.15837 8.13329L7.7167 9.76663C8.37974 9.76663 9.01563 10.03 9.48447 10.4989C9.95331 10.9677 10.2167 11.6036 10.2167 12.2666L11.8584 11.8333C11.6667 9.88329 10.1084 8.33329 8.15837 8.13329Z" fill="#BABABA"/>
<path d="M8.58471 6.50806L9.01804 4.88306C12.1264 5.41639 14.5514 7.86639 15.1014 10.9664L13.4847 11.3997C13.1014 8.87472 11.118 6.89139 8.58471 6.50806Z" fill="#1A1A1A"/>
<path d="M2.57244 11.8122C2.38309 10.5414 2.56684 9.24303 3.10138 8.07472L11.918 16.8997C11.0597 17.2914 10.118 17.4997 9.16804 17.4997C8.30971 17.4997 7.45971 17.3331 6.66804 17.0081V18.3331H4.16804V15.2331C3.31611 14.2714 2.7618 13.0829 2.57244 11.8122Z" fill="#1A1A1A"/>
<path d="M7.71805 9.76639L8.15971 8.13306C10.1097 8.33306 11.668 9.88306 11.8597 11.8331L10.218 12.2664C10.218 11.6033 9.95465 10.9675 9.48581 10.4986C9.01697 10.0298 8.38109 9.76639 7.71805 9.76639Z" fill="#1A1A1A"/>
</svg>
